<svg width="149" height="48" viewBox="0 0 149 48" fill="none" xmlns="http://www.w3.org/2000/svg">
<g clip-path="url(#clip0_6_19)">
<path d="M40 8H8C5.78 8 4 9.8 4 12V36C4 38.2 5.78 40 8 40H40C42.2 40 44 38.2 44 36V12C44 9.8 42.22 8 40 8ZM40 36H8V16H40V36ZM36 34H24V30H36V34ZM15 34L12.18 31.18L17.34 26L12.16 20.82L15 18L23 26L15 34Z" fill="#B3C5FF"/>
</g>
<path d="M55.7045 33H49.517V15.5455H55.7557C57.5114 15.5455 59.0227 15.8949 60.2898 16.5938C61.5568 17.2869 62.5313 18.2841 63.2131 19.5852C63.9006 20.8864 64.2443 22.4432 64.2443 24.2557C64.2443 26.0739 63.9006 27.6364 63.2131 28.9432C62.5313 30.25 61.5511 31.2528 60.2727 31.9517C59 32.6506 57.4773 33 55.7045 33ZM53.2074 29.8381H55.5511C56.642 29.8381 57.5597 29.6449 58.304 29.2585C59.054 28.8665 59.6165 28.2614 59.9915 27.4432C60.3722 26.6193 60.5625 25.5568 60.5625 24.2557C60.5625 22.9659 60.3722 21.9119 59.9915 21.0938C59.6165 20.2756 59.0568 19.6733 58.3125 19.2869C57.5682 18.9006 56.6506 18.7074 55.5597 18.7074H53.2074V29.8381ZM72.8757 33.2557C71.5291 33.2557 70.37 32.983 69.3984 32.4375C68.4325 31.8864 67.6882 31.108 67.1655 30.1023C66.6428 29.0909 66.3814 27.8949 66.3814 26.5142C66.3814 25.1676 66.6428 23.9858 67.1655 22.9688C67.6882 21.9517 68.424 21.1591 69.3729 20.5909C70.3274 20.0227 71.4467 19.7386 72.7308 19.7386C73.5945 19.7386 74.3984 19.8778 75.1428 20.1562C75.8928 20.429 76.5462 20.8409 77.103 21.392C77.6655 21.9432 78.103 22.6364 78.4155 23.4716C78.728 24.3011 78.8842 25.2727 78.8842 26.3864V27.3835H67.8303V25.1335H75.4666C75.4666 24.6108 75.353 24.1477 75.1257 23.7443C74.8984 23.3409 74.5831 23.0256 74.1797 22.7983C73.782 22.5653 73.3189 22.4489 72.7905 22.4489C72.2393 22.4489 71.7507 22.5767 71.3246 22.8324C70.9041 23.0824 70.5746 23.4205 70.3359 23.8466C70.0973 24.267 69.9751 24.7358 69.9695 25.2528V27.392C69.9695 28.0398 70.0888 28.5994 70.3274 29.071C70.5717 29.5426 70.9155 29.9062 71.3587 30.1619C71.8018 30.4176 72.3274 30.5455 72.9354 30.5455C73.3388 30.5455 73.7081 30.4886 74.0433 30.375C74.3786 30.2614 74.6655 30.0909 74.9041 29.8636C75.1428 29.6364 75.3246 29.358 75.4496 29.0284L78.8075 29.25C78.6371 30.0568 78.2876 30.7614 77.7592 31.3636C77.2365 31.9602 76.5604 32.4261 75.7308 32.7614C74.907 33.0909 73.9553 33.2557 72.8757 33.2557ZM93.1065 19.9091L88.5298 33H84.4389L79.8622 19.9091H83.6974L86.4162 29.2756H86.5526L89.2628 19.9091H93.1065ZM95.0327 33V15.5455H106.589V18.5881H98.723V22.7472H105.822V25.7898H98.723V33H95.0327ZM112.634 15.5455V33H109.004V15.5455H112.634ZM121.457 33.2557C120.134 33.2557 118.989 32.9744 118.023 32.4119C117.063 31.8437 116.321 31.054 115.798 30.0426C115.276 29.0256 115.014 27.8466 115.014 26.5057C115.014 25.1534 115.276 23.9716 115.798 22.9602C116.321 21.9432 117.063 21.1534 118.023 20.5909C118.989 20.0227 120.134 19.7386 121.457 19.7386C122.781 19.7386 123.923 20.0227 124.884 20.5909C125.849 21.1534 126.594 21.9432 127.116 22.9602C127.639 23.9716 127.901 25.1534 127.901 26.5057C127.901 27.8466 127.639 29.0256 127.116 30.0426C126.594 31.054 125.849 31.8437 124.884 32.4119C123.923 32.9744 122.781 33.2557 121.457 33.2557ZM121.474 30.4432C122.077 30.4432 122.58 30.2727 122.983 29.9318C123.386 29.5852 123.69 29.1136 123.895 28.517C124.105 27.9205 124.21 27.2415 124.21 26.4801C124.21 25.7188 124.105 25.0398 123.895 24.4432C123.69 23.8466 123.386 23.375 122.983 23.0284C122.58 22.6818 122.077 22.5085 121.474 22.5085C120.866 22.5085 120.355 22.6818 119.94 23.0284C119.531 23.375 119.222 23.8466 119.011 24.4432C118.807 25.0398 118.705 25.7188 118.705 26.4801C118.705 27.2415 118.807 27.9205 119.011 28.517C119.222 29.1136 119.531 29.5852 119.94 29.9318C120.355 30.2727 120.866 30.4432 121.474 30.4432ZM132.516 33L128.953 19.9091H132.626L134.655 28.7045H134.774L136.888 19.9091H140.493L142.641 28.6534H142.751L144.746 19.9091H148.411L144.857 33H141.013L138.763 24.767H138.601L136.351 33H132.516Z" fill="#B3C5FF"/>
<defs>
<clipPath id="clip0_6_19">
<rect width="48" height="48" fill="white"/>
</clipPath>
</defs>
</svg>
